DataType=double
version=3
OpenSimVersion=4.5-2024-01-10-34fd6af
endheader
time	ground_force_1_vx	ground_force_1_vy	ground_force_1_vz	ground_force_1_px	ground_force_1_py	ground_force_1_pz	ground_moment_1_mx	ground_moment_1_my	ground_moment_1_mz	ground_force_2_vx	ground_force_2_vy	ground_force_2_vz	ground_force_2_px	ground_force_2_py	ground_force_2_pz	ground_moment_2_mx	ground_moment_2_my	ground_moment_2_mz
1.34	34.80705649	744.9010052	69.58356402	0.819550251	0	0.240496534	-72.58155983	-3.678631318	116.8440009	-3.90E-42	-1.19E-40	-1.40E-41	0.820157636	0	0.721691933	-6.59E-42	1.76E-42	-6.20E-41
1.35	38.28443658	750.024317	70.49787464	0.819550251	0	0.240496534	-72.2822781	-2.9908941	113.4856637	-1.86E-38	-5.45E-37	-6.36E-38	0.820157636	0	0.721691933	-2.98E-38	7.90E-39	-2.83E-37
1.36	41.80515843	754.8392665	71.59215165	0.819550251	0	0.240496534	-71.89926788	-2.277915193	110.0266358	-7.34E-35	-2.49E-33	-2.89E-34	0.820157636	0	0.721691933	-1.38E-34	3.27E-35	-1.29E-33
1.37	45.37610312	759.3058518	72.85092054	0.819550251	0	0.240496534	-71.43844607	-1.536226683	106.4561922	-3.11E-31	-1.13E-29	-1.31E-30	0.820157636	0	0.721691933	-6.19E-31	1.62E-31	-5.89E-30
1.38	48.9804466	763.3019445	74.25501372	0.819550251	0	0.240496534	-70.89957963	-0.766288334	102.747948	-1.68E-27	-5.17E-26	-6.18E-27	0.820157636	0	0.721691933	-2.87E-27	7.51E-28	-2.70E-26
1.39	52.6227768	766.6188669	75.76311389	0.819550251	0	0.240496534	-70.2795007	0.027004076	98.87806693	-6.98E-24	-2.36E-22	-2.80E-23	0.820157636	0	0.721691933	-1.30E-23	3.36E-24	-1.23E-22
1.4	56.27851564	768.958897	77.28755771	0.819550251	0	0.240496534	-69.57339235	0.83641417	94.80687637	-3.11E-20	-1.07E-18	-1.25E-19	0.820157636	0	0.721691933	-5.87E-20	1.44E-20	-5.61E-19
1.41	59.97884103	769.949164	78.74496212	0.819550251	0	0.240496534	-68.77291164	1.653129349	90.5213204	-1.49E-16	-4.93E-15	-5.70E-16	0.820157636	0	0.721691933	-2.70E-16	6.98E-17	-2.56E-15
1.42	63.70906243	769.0767527	80.00796117	0.819550251	0	0.240496534	-67.86017769	2.472891031	85.98978263	5.524793612	19.38947726	3.839625197	0.820157636	0	0.721691933	2.561002048	-2.73543462	4.510729346
1.43	67.46398156	765.6402229	80.94052241	0.819550251	0	0.240496534	-66.79492274	3.289436316	81.20963689	8.420656553	44.72782294	7.406947386	0.820157636	0	0.721691933	6.956997326	-4.652282995	15.11605271
1.44	71.14285928	758.6954521	81.37827486	0.819550251	0	0.240496534	-65.51478983	4.096546007	76.16492611	10.57495136	81.4508469	11.43839109	0.820157636	0	0.721691933	13.24608908	-6.546298419	30.55714679
1.45	74.62570741	747.1082882	81.10856532	0.819550251	0	0.240496534	-63.93991815	4.883408936	70.86909562	10.89106642	130.1483346	15.37361361	0.820157636	0	0.721691933	21.4922467	-7.965257044	51.10341581
1.46	77.67988472	729.5904684	79.90558759	0.819550251	0	0.240496534	-61.97759768	5.632174145	65.33192137	7.884084668	189.3566575	18.32721331	0.820157636	0	0.721691933	31.39405205	-8.303657707	76.16796723
1.47	79.99383867	704.8688151	77.51215697	0.819550251	0	0.240496534	-59.52996476	6.311290523	59.56581094	0.456550005	254.8236977	19.19755809	0.820157636	0	0.721691933	42.17399968	-6.917973333	103.9956353
1.48	81.18991369	671.856828	73.75074236	0.819550251	0	0.240496534	-56.50980439	6.869835227	53.59810843	-10.76682785	319.6718875	16.60292048	0.820157636	0	0.721691933	52.63502343	-3.460746246	131.6529851
1.49	80.84930331	629.9062919	68.58795166	0.819550251	0	0.240496534	-52.86219055	7.242550153	47.47068144	-23.46107675	376.6569911	9.864700094	0.820157636	0	0.721691933	61.6043727	1.759596982	155.8911366
1.5	78.634433	579.1260616	62.18506464	0.819550251	0	0.240496534	-48.57769512	7.368748713	41.27301513	-35.58928029	422.3504871	0.025240087	0.820157636	0	0.721691933	68.53437847	7.96602969	174.9673628
1.51	74.29730009	520.5491142	54.92277364	0.819550251	0	0.240496534	-43.70945479	7.21216507	35.10266759	-46.22583887	457.9392145	-11.50410458	0.820157636	0	0.721691933	73.64113955	14.42482765	189.1815634
1.52	67.87232785	456.0403264	47.30633285	0.819550251	0	0.240496534	-38.37349918	6.769022481	29.08620248	-55.08042813	487.3384935	-23.42639518	0.820157636	0	0.721691933	77.60892445	20.61638091	200.0820382
1.53	59.5217483	388.1502733	39.85186265	0.819550251	0	0.240496534	-32.7470188	6.063906762	23.36029656	-62.21020767	514.7945414	-34.49369977	0.820157636	0	0.721691933	81.18996367	26.09383485	209.486969
1.54	49.65806568	319.8362817	32.93541714	0.819550251	0	0.240496534	-27.06089008	5.143899179	18.06092724	-67.63567191	543.2448791	-43.80452884	0.820157636	0	0.721691933	84.92688891	30.55695503	218.6679462
1.55	38.87647186	254.2126168	26.79979361	0.819550251	0	0.240496534	-21.57377872	4.08424161	13.30203891	-71.48994917	573.7305294	-50.89898181	0.820157636	0	0.721691933	89.03852285	33.85853333	228.1055681
1.56	28.01179906	194.1114613	21.56242997	0.819550251	0	0.240496534	-16.53103511	2.988101464	9.168536424	-73.77863963	605.7327259	-55.7859634	0.820157636	0	0.721691933	93.46677709	36.0284055	237.6138355
1.57	18.00932626	141.6473032	17.25619619	0.819550251	0	0.240496534	-12.12090365	1.963656965	5.672364589	-74.68301785	637.9564773	-58.89380811	0.820157636	0	0.721691933	97.99372347	37.25040223	246.7259242
1.58	9.579063441	97.90900917	13.83744069	0.819550251	0	0.240496534	-8.444990757	1.097436835	2.807332646	-74.35122211	668.8926334	-60.85896496	0.820157636	0	0.721691933	102.350221	37.78898737	254.9382918
1.59	3.137055442	63.05150581	11.1461434	0.819550251	0	0.240496534	-5.526599075	0.438289124	0.526948217	-73.06439318	697.0778453	-62.26110097	0.820157636	0	0.721691933	106.2788429	37.91032212	261.8097576
1.6	-1.304959106	36.53704522	9.017454867	0.819550251	0	0.240496534	-3.323576244	-0.00269489	-1.20240076	-71.16893887	721.367926	-63.55324104	0.820157636	0	0.721691933	109.5704515	37.83619358	267.0296857
1.61	-3.844532081	17.40469046	7.33683819	0.819550251	0	0.240496534	-1.750849542	-0.245464442	-2.436023904	-69.02328144	740.9172321	-64.94060761	0.820157636	0	0.721691933	112.0939544	37.70662252	270.3962273
1.62	-4.792925693	4.464860369	5.998630691	0.819550251	0	0.240496534	-0.702110994	-0.322715749	-3.247489373	-66.94994171	755.4814984	-66.4523505	0.820157636	0	0.721691933	113.8111472	37.57709276	271.8841905
1.63	5.58E-18	-2.93E-16	-2.53E-17	0.819550251	0	0.240496534	5.33E-18	3.52E-19	2.55E-17	-65.03716377	765.2533984	-67.91559323	0.820157636	0	0.721691933	114.7774728	37.41575379	271.5911707
1.64	1.24E-21	-6.42E-20	-5.61E-21	0.819550251	0	0.240496534	1.16E-21	8.35E-23	5.68E-21	-63.2977953	770.8907267	-69.06996227	0.820157636	0	0.721691933	115.1124536	37.14211267	269.7487278
1.65	2.75E-25	-1.41E-23	-1.21E-24	0.819550251	0	0.240496534	2.55E-25	1.78E-26	1.23E-24	-61.65225664	773.1927265	-69.71323079	0.820157636	0	0.721691933	114.9597692	36.67986462	266.6495642
1.66	6.23E-29	-3.08E-27	-2.67E-28	0.819550251	0	0.240496534	5.51E-29	4.14E-30	2.69E-28	-60.01450318	773.0062993	-69.75552062	0.820157636	0	0.721691933	114.4567361	35.99180063	262.5946659
1.67	1.29E-32	-6.75E-31	-5.92E-32	0.819550251	0	0.240496534	1.23E-32	8.73E-34	5.87E-32	-58.34394377	771.0439928	-69.26332958	0.820157636	0	0.721691933	113.7106952	35.08870498	257.8415535
1.68	2.92E-36	-1.48E-34	-1.29E-35	0.819550251	0	0.240496534	2.64E-36	1.82E-37	1.29E-35	-56.58146084	767.8141105	-68.35650163	0.820157636	0	0.721691933	112.7956548	34.00962671	252.5964845
